<svg viewBox="0 0 656 507" fill="none"
  xmlns="http://www.w3.org/2000/svg">
  <path d="M178.181 505.588C89.7414 518.396 9.4479 442.13 0.720337 355.966C-7.42538 270.385 55.413 174.906 93.2324 75.9345C131.634 -23.0371 144.434 -125.502 202.036 -168.584C259.056 -211.665 360.878 -194.782 451.644 -179.645C542.411 -164.508 621.541 -150.536 699.507 -113.858C776.891 -77.7626 852.53 -18.3796 843.221 46.243C833.911 110.283 739.072 180.728 706.489 267.474C673.324 354.219 701.834 457.266 671.579 463.088C640.741 469.492 551.72 378.671 458.626 384.493C364.95 390.315 267.202 492.78 178.181 505.588Z" fill="#C1DFCC"/>
</svg>
