<svg xmlns="http://www.w3.org/2000/svg" viewBox="0 0 1380 324" fill="none">
	<path d="M467.11 62H379.93V262H467.11C526.42 262 571.15 220.13 571.15 162C571.15 103.87 526.42 62 467.11 62ZM467.11 222H419.93V102H467.11C504.82 102 531.15 126.67 531.15 162C531.15 197.33 504.81 222 467.11 222Z" fill="#03363D"/>
	<path d="M925.01 62C925.01 69.59 916.6 84.75 910.55 92.74L874.92 144.09L817.98 62H769.3L855.03 185.6V262H895.03V185.27L942.64 116.62C947.01 110.82 965.01 85.51 965.01 62H925.01Z" fill="#03363D"/>
	<path d="M708.73 186.91L708.89 186.87C739.51 179.6 759.3 155.97 759.3 125.47C759.3 87.49 728.64 62 689.3 62H601.4V262H641.4V188.94H662.24L685.77 224.85C687.61 228.01 692.97 236.14 703.12 244.06C713.71 252.32 732.06 262 759.3 262V222C732.39 222 721.82 207.06 720.45 204.91L708.73 186.91ZM641.4 148.94V102H689.41C704.29 102 719.3 107.9 719.3 125.47C719.3 143.04 704.29 148.94 689.41 148.94H641.4Z" fill="#03363D"/>
	<path d="M997.68 262L1012.54 222H1101.18L1116.04 262H1158.71L1082.94 62H1030.78L955.01 262H997.68ZM1056.86 102.72L1086.32 182H1027.41L1056.86 102.72Z" fill="#03363D"/>
	<path d="M1275.89 62H1188.71V262H1275.89C1335.2 262 1379.93 220.13 1379.93 162C1379.93 103.87 1335.2 62 1275.89 62ZM1275.89 222H1228.71V102H1275.89C1313.6 102 1339.93 126.67 1339.93 162C1339.93 197.33 1313.6 222 1275.89 222Z" fill="#03363D"/>
	<path d="M300.06 119.67C300.04 109.42 297.94 99.4201 294.06 90.1701C294.02 90.0701 293.97 89.9701 293.93 89.8701C293.72 89.3701 293.5 88.8601 293.28 88.3601C286.66 73.4401 275.47 60.7301 260.96 52.4501L188.89 10.5601C181.14 5.54013 172.06 2.2901 161.18 0.660104C149.18 -0.729896 138.9 0.640146 138.9 0.640146C129.76 2.08015 120.45 5.41015 111.22 10.5202L39.1201 52.4301C15.0301 66.2201 0.0600586 92.1801 0.0600586 120.2V120.62V204.45V204.87H0.0700684C0.0900684 215.12 2.19007 225.12 6.07007 234.37C6.11007 234.47 6.16007 234.57 6.20007 234.68C6.41007 235.18 6.63007 235.69 6.85007 236.19C13.4701 251.11 24.6601 263.82 39.1701 272.1L111.24 313.99C118.99 319.01 128.07 322.26 138.95 323.89C139.24 323.92 139.53 323.95 139.82 323.98V321.36L139.77 317.33V239.66L63.3101 175.52C58.8901 171.81 58.3201 165.21 62.0201 160.79C64.0101 158.42 66.9301 157.05 70.0301 157.05C72.4801 157.05 74.8601 157.92 76.7401 159.5L139.76 212.38V108.01L139.81 107.63L139.82 107.58C140.06 102 144.62 97.6401 150.22 97.6401C155.96 97.6401 160.63 102.31 160.63 108.05V186.75L193.71 159C195.59 157.42 197.97 156.55 200.42 156.55C203.52 156.55 206.44 157.91 208.43 160.28C212.14 164.7 211.56 171.3 207.14 175.01L160.62 214.04V267.93L223.69 215.01C225.57 213.43 227.96 212.56 230.41 212.56C233.51 212.56 236.43 213.92 238.42 216.29C240.22 218.43 241.07 221.14 240.83 223.92C240.59 226.7 239.28 229.22 237.14 231.02L160.63 295.22V323.98C161.02 323.94 161.23 323.91 161.23 323.91C170.37 322.47 179.68 319.14 188.91 314.03L261.01 272.12C285.1 258.33 300.07 232.37 300.07 204.35V203.93V120.1L300.06 119.67Z" fill="#30AE7D"/>
</svg>