<svg viewBox="0 0 406 336" fill="none"
  xmlns="http://www.w3.org/2000/svg">
  <rect width="43.5305" height="170.518" transform="matrix(-1 0 0 1 142.18 92.3281)" fill="#C26326"/>
  <rect width="6.37708" height="114.233" transform="matrix(-1 0 0 1 142.18 102.033)" fill="#EF9F6E"/>
  <path d="M128.317 218.308C128.317 218.308 167.035 219.969 161.823 181.053H177.67C177.67 181.053 176.727 224.793 130.387 232.447L128.317 218.308Z" fill="#C26326"/>
  <path d="M108.631 166.636C108.631 166.636 78.1317 166.636 73.4182 134.75L58.7231 134.75C58.7231 134.75 59.639 176.282 104.678 183.549L108.631 166.636Z" fill="#C26326"/>
  <mask id="mask0_2999_4665" style="mask-type:alpha" maskUnits="userSpaceOnUse" x="19" y="100" width="77" height="35">
    <rect width="75.9704" height="34.1035" transform="matrix(-1 0 0 1 95.8766 100.645)" fill="#C4C4C4"/>
  </mask>
  <g mask="url(#mask0_2999_4665)">
    <rect width="14.695" height="11.6294" transform="matrix(-1 0 0 1 79.3706 123.748)" fill="#134F44"/>
    <ellipse rx="11.5065" ry="13.3126" transform="matrix(-1 0 0 1 83.1136 122.676)" fill="#134F44"/>
    <ellipse rx="12.1996" ry="14.0777" transform="matrix(-1 0 0 1 69.1119 114.873)" fill="#134F44"/>
    <ellipse rx="14.0019" ry="13.9247" transform="matrix(-1 0 0 1 55.9418 124.206)" fill="#134F44"/>
    <ellipse rx="9.56562" ry="9.14972" transform="matrix(-1 0 0 1 39.3058 133.236)" fill="#134F44"/>
    <rect width="14.695" height="11.6294" transform="matrix(-1 0 0 1 75.9136 125.262)" fill="#09353D"/>
    <ellipse rx="11.5065" ry="13.3126" transform="matrix(-1 0 0 1 79.6566 124.19)" fill="#09353D"/>
    <ellipse rx="12.1996" ry="14.0777" transform="matrix(-1 0 0 1 65.6549 116.386)" fill="#09353D"/>
    <ellipse rx="14.0019" ry="13.9247" transform="matrix(-1 0 0 1 52.4847 125.72)" fill="#09353D"/>
    <ellipse rx="9.56562" ry="9.14972" transform="matrix(-1 0 0 1 35.8488 134.749)" fill="#09353D"/>
    <path d="M75.7062 127.35C74.6692 129.543 74.5718 131.749 75.4887 132.277C76.4056 132.805 77.9896 131.456 79.0266 129.263C80.0636 127.071 80.161 124.865 79.2441 124.336C78.3272 123.808 76.7432 125.157 75.7062 127.35Z" fill="#3BA881"/>
    <path d="M65.1213 116.439C67.266 117.157 69.2478 116.852 69.5477 115.76C69.8477 114.667 68.3523 113.2 66.2076 112.483C64.0629 111.765 62.0812 112.069 61.7812 113.162C61.4812 114.254 62.9766 115.722 65.1213 116.439Z" fill="#134F44"/>
    <path d="M50.7586 123.919C52.1795 125.832 53.9797 126.795 54.7795 126.072C55.5794 125.348 55.076 123.21 53.6551 121.297C52.2342 119.385 50.434 118.421 49.6342 119.145C48.8343 119.868 49.3377 122.006 50.7586 123.919Z" fill="#3BA881"/>
    <path d="M37.7886 132.492C39.3971 132.109 40.4805 131.156 40.2086 130.362C39.9366 129.568 38.4122 129.235 36.8037 129.618C35.1953 130 34.1118 130.954 34.3838 131.747C34.6558 132.541 36.1801 132.874 37.7886 132.492Z" fill="#3BA881"/>
  </g>
  <mask id="mask1_2999_4665" style="mask-type:alpha" maskUnits="userSpaceOnUse" x="144" y="146" width="59" height="36">
    <rect width="58.2255" height="34.1035" transform="matrix(-1 0 0 1 202.901 146.949)" fill="#C4C4C4"/>
  </mask>
  <g mask="url(#mask1_2999_4665)">
    <rect width="14.695" height="11.6294" transform="matrix(-1 0 0 1 186.819 169.902)" fill="#134F44"/>
    <ellipse rx="11.5065" ry="13.3126" transform="matrix(-1 0 0 1 190.562 168.83)" fill="#134F44"/>
    <ellipse rx="12.1996" ry="14.0777" transform="matrix(-1 0 0 1 176.56 161.027)" fill="#134F44"/>
    <ellipse rx="14.0019" ry="13.9247" transform="matrix(-1 0 0 1 163.39 170.36)" fill="#134F44"/>
    <rect width="14.695" height="11.6294" transform="matrix(-1 0 0 1 182.938 171.564)" fill="#09353D"/>
    <ellipse rx="11.5065" ry="13.3126" transform="matrix(-1 0 0 1 186.681 170.492)" fill="#09353D"/>
    <ellipse rx="12.1996" ry="14.0777" transform="matrix(-1 0 0 1 172.679 162.689)" fill="#09353D"/>
    <ellipse rx="14.0019" ry="13.9247" transform="matrix(-1 0 0 1 159.509 172.022)" fill="#09353D"/>
    <path d="M182.73 173.655C181.693 175.848 181.596 178.054 182.513 178.582C183.43 179.11 185.014 177.761 186.051 175.568C187.088 173.375 187.185 171.169 186.268 170.641C185.351 170.113 183.767 171.462 182.73 173.655Z" fill="#3BA881"/>
    <path d="M172.145 162.744C174.29 163.461 176.272 163.157 176.572 162.065C176.872 160.972 175.376 159.505 173.232 158.787C171.087 158.07 169.105 158.374 168.805 159.467C168.505 160.559 170.001 162.026 172.145 162.744Z" fill="#134F44"/>
    <path d="M157.783 170.223C159.204 172.136 161.004 173.1 161.804 172.376C162.603 171.652 162.1 169.515 160.679 167.602C159.258 165.689 157.458 164.725 156.658 165.449C155.858 166.173 156.362 168.311 157.783 170.223Z" fill="#3BA881"/>
  </g>
  <mask id="mask2_2999_4665" style="mask-type:alpha" maskUnits="userSpaceOnUse" x="53" y="0" width="137" height="93">
    <rect width="136.137" height="92.329" transform="matrix(-1 0 0 1 189.592 0)" fill="#C4C4C4"/>
  </mask>
  <g mask="url(#mask2_2999_4665)">
    <path d="M136.912 70.287C136.912 85.2171 148.705 97.3203 163.252 97.3203C177.799 97.3203 189.592 85.2171 189.592 70.287C189.592 55.3569 177.799 43.2537 163.252 43.2537C148.705 43.2537 136.912 55.3569 136.912 70.287Z" fill="#3BA881"/>
    <path d="M61.773 70.287C61.773 83.6858 73.5659 94.5476 88.1131 94.5476C102.66 94.5476 114.453 83.6858 114.453 70.287C114.453 56.8882 102.66 46.0264 88.1131 46.0264C73.5659 46.0264 61.773 56.8882 61.773 70.287Z" fill="#3BA881"/>
    <path d="M103.085 25.9247C103.085 39.3235 112.83 50.1853 124.851 50.1853C136.871 50.1853 146.616 39.3235 146.616 25.9247C146.616 12.5259 136.871 1.66406 124.851 1.66406C112.83 1.66406 103.085 12.5259 103.085 25.9247Z" fill="#3BA881"/>
    <path d="M84.2314 39.5107C84.2314 52.9094 96.0243 63.7713 110.572 63.7713C125.119 63.7713 136.912 52.9094 136.912 39.5107C136.912 26.1119 125.119 15.25 110.572 15.25C96.0243 15.25 84.2314 26.1119 84.2314 39.5107Z" fill="#3BA881"/>
    <path d="M120.276 39.5107C120.276 52.9094 132.069 63.7713 146.616 63.7713C161.163 63.7713 172.956 52.9094 172.956 39.5107C172.956 26.1119 161.163 15.25 146.616 15.25C132.069 15.25 120.276 26.1119 120.276 39.5107Z" fill="#3BA881"/>
    <path d="M159.093 51.8489H84.2314V91.4977H159.093V51.8489Z" fill="#3BA881"/>
    <path d="M128.594 71.6718C128.594 86.6018 140.387 98.705 154.934 98.705C169.481 98.705 181.274 86.6018 181.274 71.6718C181.274 56.7417 169.481 44.6385 154.934 44.6385C140.387 44.6385 128.594 56.7417 128.594 71.6718Z" fill="#115042"/>
    <path d="M53.4552 71.6718C53.4552 85.0705 65.248 95.9324 79.7953 95.9324C94.3425 95.9324 106.135 85.0705 106.135 71.6718C106.135 58.273 94.3425 47.4111 79.7953 47.4111C65.248 47.4111 53.4552 58.273 53.4552 71.6718Z" fill="#115042"/>
    <path d="M94.7676 27.3095C94.7676 40.7082 104.512 51.5701 116.533 51.5701C128.553 51.5701 138.298 40.7082 138.298 27.3095C138.298 13.9107 128.553 3.04883 116.533 3.04883C104.512 3.04883 94.7676 13.9107 94.7676 27.3095Z" fill="#115042"/>
    <path d="M75.9136 40.8954C75.9136 54.2942 87.7064 65.1561 102.254 65.1561C116.801 65.1561 128.594 54.2942 128.594 40.8954C128.594 27.4966 116.801 16.6348 102.254 16.6348C87.7064 16.6348 75.9136 27.4966 75.9136 40.8954Z" fill="#115042"/>
    <path d="M111.958 40.8954C111.958 54.2942 123.751 65.1561 138.298 65.1561C152.845 65.1561 164.638 54.2942 164.638 40.8954C164.638 27.4966 152.845 16.6348 138.298 16.6348C123.751 16.6348 111.958 27.4966 111.958 40.8954Z" fill="#115042"/>
    <path d="M150.775 53.2337H75.9136V92.8825H150.775V53.2337Z" fill="#115042"/>
    <path d="M136.063 38.1603C134.662 40.8438 134.531 43.5434 135.769 44.1899C137.008 44.8365 139.148 43.1852 140.549 40.5016C141.949 37.818 142.081 35.1185 140.842 34.4719C139.604 33.8254 137.464 35.4767 136.063 38.1603Z" fill="#3BA881"/>
    <path d="M89.9818 49.955C91.1422 53.2201 93.3045 55.4329 94.8115 54.8973C96.3185 54.3618 96.5994 51.2807 95.4391 48.0156C94.2787 44.7504 92.1164 42.5377 90.6094 43.0732C89.1024 43.6088 88.8214 46.6899 89.9818 49.955Z" fill="#3BA881"/>
    <path d="M132.966 70.3965C132.877 74.0069 134.156 76.9668 135.822 77.0078C137.489 77.0488 138.911 74.1553 139 70.5449C139.089 66.9346 137.81 63.9746 136.144 63.9336C134.478 63.8926 133.055 66.7862 132.966 70.3965Z" fill="#3BA881"/>
  </g>
  <mask id="mask3_2999_4665" style="mask-type:alpha" maskUnits="userSpaceOnUse" x="0" y="190" width="406" height="146">
    <rect x="406" y="335.543" width="406" height="145.41" transform="rotate(180 406 335.543)" fill="#C4C4C4"/>
  </mask>
  <g mask="url(#mask3_2999_4665)">
    <path d="M329.047 316.305C329.047 336.313 346.106 352.532 367.149 352.532C388.192 352.532 405.25 336.313 405.25 316.305C405.25 296.297 388.192 280.077 367.149 280.077C346.106 280.077 329.047 296.297 329.047 316.305Z" fill="#91F2A1"/>
    <path d="M266.836 284.199C266.836 307.312 287.362 326.049 312.682 326.049C338.003 326.049 358.529 307.312 358.529 284.199C358.529 261.087 338.003 242.35 312.682 242.35C287.362 242.35 266.836 261.087 266.836 284.199Z" fill="#91F2A1"/>
    <path d="M250.346 242.35C250.346 255.735 262.259 266.585 276.954 266.585C291.65 266.585 303.563 255.735 303.563 242.35C303.563 228.965 291.65 218.115 276.954 218.115C262.259 218.115 250.346 228.965 250.346 242.35Z" fill="#91F2A1"/>
    <path d="M184.636 227.234C184.636 244.69 204.044 258.84 227.985 258.84C251.925 258.84 271.333 244.69 271.333 227.234C271.333 209.779 251.925 195.629 227.985 195.629C204.044 195.629 184.636 209.779 184.636 227.234Z" fill="#91F2A1"/>
    <path d="M136.666 256.092C136.666 274.996 152.326 290.321 171.644 290.321C190.962 290.321 206.623 274.996 206.623 256.092C206.623 237.188 190.962 221.863 171.644 221.863C152.326 221.863 136.666 237.188 136.666 256.092Z" fill="#91F2A1"/>
    <path d="M88.6953 284.324C88.6953 303.228 105.418 318.553 126.047 318.553C146.676 318.553 163.399 303.228 163.399 284.324C163.399 265.42 146.676 250.095 126.047 250.095C105.418 250.095 88.6953 265.42 88.6953 284.324Z" fill="#91F2A1"/>
    <path d="M48.4701 314.306C48.4701 333.21 66.7033 348.535 89.195 348.535C111.687 348.535 129.92 333.21 129.92 314.306C129.92 295.402 111.687 280.077 89.195 280.077C66.7033 280.077 48.4701 295.402 48.4701 314.306Z" fill="#91F2A1"/>
    <path d="M17.2393 331.92C17.2393 343.304 31.7252 352.532 49.5944 352.532C67.4636 352.532 81.9495 343.304 81.9495 331.92C81.9495 320.536 67.4636 311.308 49.5944 311.308C31.7252 311.308 17.2393 320.536 17.2393 331.92Z" fill="#91F2A1"/>
    <path d="M339.291 280.077H101.937V352.532H339.291V280.077Z" fill="#91F2A1"/>
    <path d="M274.581 250.095H171.644V322.551H274.581V250.095Z" fill="#91F2A1"/>
    <path d="M315.306 316.305C315.306 336.313 332.364 352.532 353.407 352.532C374.45 352.532 391.509 336.313 391.509 316.305C391.509 296.297 374.45 280.077 353.407 280.077C332.364 280.077 315.306 296.297 315.306 316.305Z" fill="#66D283"/>
    <path d="M253.094 284.199C253.094 307.312 273.62 326.049 298.941 326.049C324.261 326.049 344.788 307.312 344.788 284.199C344.788 261.087 324.261 242.35 298.941 242.35C273.62 242.35 253.094 261.087 253.094 284.199Z" fill="#66D283"/>
    <path d="M236.604 242.35C236.604 255.735 248.517 266.585 263.213 266.585C277.908 266.585 289.822 255.735 289.822 242.35C289.822 228.965 277.908 218.115 263.213 218.115C248.517 218.115 236.604 228.965 236.604 242.35Z" fill="#66D283"/>
    <path d="M170.895 227.234C170.895 244.69 190.302 258.84 214.243 258.84C238.184 258.84 257.591 244.69 257.591 227.234C257.591 209.779 238.184 195.629 214.243 195.629C190.302 195.629 170.895 209.779 170.895 227.234Z" fill="#66D283"/>
    <path d="M122.924 256.092C122.924 274.996 138.585 290.321 157.903 290.321C177.221 290.321 192.881 274.996 192.881 256.092C192.881 237.188 177.221 221.863 157.903 221.863C138.585 221.863 122.924 237.188 122.924 256.092Z" fill="#66D283"/>
    <path d="M74.9539 284.324C74.9539 303.228 91.6769 318.553 112.306 318.553C132.935 318.553 149.658 303.228 149.658 284.324C149.658 265.42 132.935 250.095 112.306 250.095C91.6769 250.095 74.9539 265.42 74.9539 284.324Z" fill="#66D283"/>
    <path d="M34.7286 314.306C34.7286 333.21 52.9618 348.535 75.4536 348.535C97.9453 348.535 116.178 333.21 116.178 314.306C116.178 295.402 97.9453 280.077 75.4536 280.077C52.9618 280.077 34.7286 295.402 34.7286 314.306Z" fill="#66D283"/>
    <path d="M3.49787 331.92C3.49787 343.304 17.9837 352.532 35.8529 352.532C53.7222 352.532 68.208 343.304 68.208 331.92C68.208 320.536 53.7222 311.308 35.8529 311.308C17.9837 311.308 3.49787 320.536 3.49787 331.92Z" fill="#66D283"/>
    <path d="M325.55 280.077H88.1957V352.532H325.55V280.077Z" fill="#66D283"/>
    <path d="M260.839 250.095H157.903V322.551H260.839V250.095Z" fill="#66D283"/>
    <path d="M309.688 288.544C306.361 292.458 304.646 296.614 305.858 297.825C307.07 299.037 310.749 296.846 314.076 292.932C317.403 289.017 319.118 284.861 317.906 283.65C316.694 282.438 313.015 284.629 309.688 288.544Z" fill="#3BA881"/>
    <path d="M296.549 272.163C297.101 277.589 299.566 281.946 302.055 281.896C304.544 281.845 306.114 277.405 305.562 271.979C305.011 266.553 302.546 262.195 300.057 262.246C297.568 262.297 295.997 266.737 296.549 272.163Z" fill="#3BA881"/>
    <path d="M254.964 249.541C253.893 251.718 253.851 253.976 254.869 254.583C255.887 255.191 257.581 253.918 258.651 251.741C259.722 249.564 259.764 247.306 258.746 246.699C257.728 246.091 256.034 247.364 254.964 249.541Z" fill="#3BA881"/>
    <path d="M242.347 259.601C243.569 263.622 246.078 266.55 247.952 266.143C249.826 265.736 250.355 262.147 249.134 258.127C247.912 254.107 245.403 251.178 243.529 251.585C241.655 251.992 241.126 255.581 242.347 259.601Z" fill="#3BA881"/>
    <path d="M211.486 231.971C210.41 236.032 211.003 239.843 212.811 240.483C214.619 241.122 216.957 238.349 218.033 234.287C219.11 230.226 218.516 226.415 216.708 225.776C214.9 225.136 212.562 227.91 211.486 231.971Z" fill="#3BA881"/>
    <path d="M171.018 246.871C172.512 249.885 174.88 251.867 176.307 251.299C177.733 250.73 177.679 247.826 176.184 244.811C174.69 241.797 172.322 239.814 170.895 240.383C169.469 240.952 169.524 243.856 171.018 246.871Z" fill="#3BA881"/>
    <path d="M169.65 271.213C173.529 272.396 177.225 271.96 177.906 270.238C178.588 268.517 175.995 266.164 172.117 264.981C168.238 263.799 164.541 264.235 163.86 265.956C163.179 267.677 165.771 270.031 169.65 271.213Z" fill="#3BA881"/>
    <path d="M124.386 296.729C126.615 291.987 127.125 287.4 125.525 286.484C123.926 285.568 120.823 288.669 118.595 293.412C116.366 298.154 115.856 302.741 117.456 303.657C119.055 304.573 122.158 301.472 124.386 296.729Z" fill="#3BA881"/>
    <path d="M223.321 292.524C228.019 294.436 232.673 294.31 233.716 292.243C234.759 290.176 231.796 286.951 227.098 285.039C222.4 283.128 217.746 283.254 216.703 285.321C215.66 287.387 218.623 290.613 223.321 292.524Z" fill="#3BA881"/>
  </g>
</svg>
